<svg version="1.1" id="Layer_1" xmlns="http://www.w3.org/2000/svg" xmlns:xlink="http://www.w3.org/1999/xlink" x="0px" y="0px"
	 width="100%" viewBox="0 0 1500 1500" enable-background="new 0 0 1500 1500" xml:space="preserve">
<path fill="#000000" opacity="1.000000" stroke="none" 
	d="
M791.000000,1501.000000 
	C527.333374,1501.000000 264.166748,1501.000000 1.000106,1501.000000 
	C1.000071,1001.000122 1.000071,501.000275 1.000035,1.000307 
	C500.999756,1.000205 1000.999512,1.000205 1500.999512,1.000102 
	C1500.999634,500.999664 1500.999634,1000.999329 1500.999756,1500.999512 
	C1264.500000,1501.000000 1028.000000,1501.000000 791.000000,1501.000000 
M1207.990967,713.408875 
	C1212.677002,691.320679 1217.986328,669.341675 1221.877563,647.114380 
	C1225.958130,623.806580 1229.098633,600.309692 1231.843994,576.801331 
	C1233.638306,561.435791 1234.842407,545.901428 1234.818848,530.444946 
	C1234.773682,500.751648 1233.873413,471.053284 1232.903198,441.370911 
	C1232.506226,429.228760 1231.191162,417.103790 1229.960693,405.004883 
	C1228.486694,390.512543 1227.144775,375.978912 1224.863525,361.603210 
	C1221.650146,341.353302 1217.687256,321.220520 1213.898682,301.065155 
	C1213.118774,296.916779 1211.695923,292.889252 1210.559082,288.768494 
	C1204.728394,290.328033 1199.767456,291.878632 1194.707275,292.967957 
	C1177.075806,296.763306 1159.466431,300.704193 1141.737427,303.988403 
	C1129.870728,306.186646 1117.828491,307.472046 1105.838379,308.952332 
	C1100.612183,309.597595 1095.320679,309.723175 1090.057129,310.057129 
	C1080.039062,310.692719 1070.018188,311.822113 1060.001221,311.793488 
	C1049.147217,311.762451 1038.274658,310.889526 1027.449707,309.935364 
	C1015.216553,308.857056 1002.884705,308.035034 990.848938,305.761627 
	C966.284607,301.121796 942.094116,294.992035 918.601685,286.113678 
	C888.340027,274.677094 859.550354,260.388184 832.468872,242.804474 
	C814.590454,231.196228 797.330933,218.634842 779.728577,206.454697 
	C771.881287,211.893234 763.707703,217.740280 755.349915,223.310944 
	C739.719788,233.728775 724.201416,244.339310 708.238708,254.227371 
	C684.647095,268.841125 659.278442,279.844452 633.131958,288.982697 
	C603.853882,299.215424 573.900940,306.752502 542.855713,308.927338 
	C526.681885,310.060364 510.451874,310.458069 494.240356,310.970551 
	C474.902771,311.581787 455.697479,309.927124 436.593933,306.997528 
	C426.605072,305.465729 416.542053,304.272461 406.660797,302.214569 
	C387.607544,298.246521 368.659546,293.773193 349.262787,289.418457 
	C348.949951,290.312103 348.310577,291.627686 348.031494,293.015717 
	C345.596039,305.129761 343.078583,317.230225 340.871887,329.386688 
	C338.108429,344.610107 335.302551,359.837708 333.103760,375.148010 
	C331.287750,387.792786 330.112030,400.542328 329.040131,413.278046 
	C327.508026,431.481812 325.409515,449.704498 325.196228,467.938354 
	C324.783295,503.240112 323.823517,538.597351 327.950836,573.807495 
	C328.945709,582.294678 329.005432,590.895569 330.097656,599.366516 
	C331.787140,612.469421 333.739471,625.550781 336.044739,638.559021 
	C339.251678,656.654907 341.885681,674.939270 346.566223,692.667480 
	C354.300568,721.962280 362.489288,751.215881 372.338074,779.850037 
	C380.924530,804.814026 391.451599,829.175415 402.282776,853.281128 
	C410.339294,871.211548 419.622803,888.673523 429.502563,905.680298 
	C441.257965,925.915649 454.074768,945.544250 466.724060,965.247986 
	C483.176483,990.876038 502.359741,1014.470459 522.184448,1037.502808 
	C534.148804,1051.402832 546.727966,1064.809082 559.576660,1077.901611 
	C570.353821,1088.883423 581.827881,1099.191162 593.170471,1109.604370 
	C601.293091,1117.061401 609.475464,1124.487793 618.047180,1131.412964 
	C631.260498,1142.088257 644.447449,1152.867432 658.336304,1162.618652 
	C680.166321,1177.945312 702.344238,1192.807861 724.815613,1207.177734 
	C738.777649,1216.106201 753.616882,1223.653564 767.936340,1232.036255 
	C775.181396,1236.277344 782.090393,1239.720825 789.735657,1232.798828 
	C791.862122,1230.873657 794.743164,1229.782104 797.277344,1228.306885 
	C815.545105,1217.673950 834.190674,1207.632568 851.991089,1196.267456 
	C878.237061,1179.510132 903.986206,1161.915649 927.722229,1141.671753 
	C949.633667,1122.984253 971.745789,1104.447266 992.529602,1084.548828 
	C1009.691040,1068.118530 1025.206665,1049.945312 1041.127686,1032.252808 
	C1049.898315,1022.506287 1058.506470,1012.532288 1066.291504,1001.998230 
	C1079.352295,984.325500 1092.345215,966.537964 1104.170044,948.033875 
	C1117.294189,927.496582 1129.592407,906.383362 1141.275024,884.988464 
	C1150.003052,869.004639 1157.627319,852.369812 1164.931519,835.669861 
	C1172.792969,817.695801 1180.384521,799.544495 1186.860718,781.038940 
	C1194.568481,759.015259 1200.963867,736.532349 1207.990967,713.408875 
z"/>
<path fill="#2979FF" opacity="1.000000" stroke="none" 
	d="
M1207.959473,713.828613 
	C1200.963867,736.532349 1194.568481,759.015259 1186.860718,781.038940 
	C1180.384521,799.544495 1172.792969,817.695801 1164.931519,835.669861 
	C1157.627319,852.369812 1150.003052,869.004639 1141.275024,884.988464 
	C1129.592407,906.383362 1117.294189,927.496582 1104.170044,948.033875 
	C1092.345215,966.537964 1079.352295,984.325500 1066.291504,1001.998230 
	C1058.506470,1012.532288 1049.898315,1022.506287 1041.127686,1032.252808 
	C1025.206665,1049.945312 1009.691040,1068.118530 992.529602,1084.548828 
	C971.745789,1104.447266 949.633667,1122.984253 927.722229,1141.671753 
	C903.986206,1161.915649 878.237061,1179.510132 851.991089,1196.267456 
	C834.190674,1207.632568 815.545105,1217.673950 797.277344,1228.306885 
	C794.743164,1229.782104 791.862122,1230.873657 789.735657,1232.798828 
	C782.090393,1239.720825 775.181396,1236.277344 767.936340,1232.036255 
	C753.616882,1223.653564 738.777649,1216.106201 724.815613,1207.177734 
	C702.344238,1192.807861 680.166321,1177.945312 658.336304,1162.618652 
	C644.447449,1152.867432 631.260498,1142.088257 618.047180,1131.412964 
	C609.475464,1124.487793 601.293091,1117.061401 593.170471,1109.604370 
	C581.827881,1099.191162 570.353821,1088.883423 559.576660,1077.901611 
	C546.727966,1064.809082 534.148804,1051.402832 522.184448,1037.502808 
	C502.359741,1014.470459 483.176483,990.876038 466.724060,965.247986 
	C454.074768,945.544250 441.257965,925.915649 429.502563,905.680298 
	C419.622803,888.673523 410.339294,871.211548 402.282776,853.281128 
	C391.451599,829.175415 380.924530,804.814026 372.338074,779.850037 
	C362.489288,751.215881 354.300568,721.962280 346.566223,692.667480 
	C341.885681,674.939270 339.251678,656.654907 336.044739,638.559021 
	C333.739471,625.550781 331.787140,612.469421 330.097656,599.366516 
	C329.005432,590.895569 328.945709,582.294678 327.950836,573.807495 
	C323.823517,538.597351 324.783295,503.240112 325.196228,467.938354 
	C325.409515,449.704498 327.508026,431.481812 329.040131,413.278046 
	C330.112030,400.542328 331.287750,387.792786 333.103760,375.148010 
	C335.302551,359.837708 338.108429,344.610107 340.871887,329.386688 
	C343.078583,317.230225 345.596039,305.129761 348.031494,293.015717 
	C348.310577,291.627686 348.949951,290.312103 349.262787,289.418457 
	C368.659546,293.773193 387.607544,298.246521 406.660797,302.214569 
	C416.542053,304.272461 426.605072,305.465729 436.593933,306.997528 
	C455.697479,309.927124 474.902771,311.581787 494.240356,310.970551 
	C510.451874,310.458069 526.681885,310.060364 542.855713,308.927338 
	C573.900940,306.752502 603.853882,299.215424 633.131958,288.982697 
	C659.278442,279.844452 684.647095,268.841125 708.238708,254.227371 
	C724.201416,244.339310 739.719788,233.728775 755.349915,223.310944 
	C763.707703,217.740280 771.881287,211.893234 779.728577,206.454697 
	C797.330933,218.634842 814.590454,231.196228 832.468872,242.804474 
	C859.550354,260.388184 888.340027,274.677094 918.601685,286.113678 
	C942.094116,294.992035 966.284607,301.121796 990.848938,305.761627 
	C1002.884705,308.035034 1015.216553,308.857056 1027.449707,309.935364 
	C1038.274658,310.889526 1049.147217,311.762451 1060.001221,311.793488 
	C1070.018188,311.822113 1080.039062,310.692719 1090.057129,310.057129 
	C1095.320679,309.723175 1100.612183,309.597595 1105.838379,308.952332 
	C1117.828491,307.472046 1129.870728,306.186646 1141.737427,303.988403 
	C1159.466431,300.704193 1177.075806,296.763306 1194.707275,292.967957 
	C1199.767456,291.878632 1204.728394,290.328033 1210.559082,288.768494 
	C1211.695923,292.889252 1213.118774,296.916779 1213.898682,301.065155 
	C1217.687256,321.220520 1221.650146,341.353302 1224.863525,361.603210 
	C1227.144775,375.978912 1228.486694,390.512543 1229.960693,405.004883 
	C1231.191162,417.103790 1232.506226,429.228760 1232.903198,441.370911 
	C1233.873413,471.053284 1234.773682,500.751648 1234.818848,530.444946 
	C1234.842407,545.901428 1233.638306,561.435791 1231.843994,576.801331 
	C1229.098633,600.309692 1225.958130,623.806580 1221.877563,647.114380 
	C1217.986328,669.341675 1212.677002,691.320679 1207.959473,713.828613 
M902.271790,822.777405 
	C845.513245,762.985046 804.363342,693.997375 780.232300,614.109680 
	C731.862854,762.218811 638.094543,869.046631 497.476166,935.177063 
	C498.511566,936.869324 499.306335,938.450745 500.355286,939.840332 
	C515.889648,960.419250 531.055847,981.294067 547.152710,1001.424377 
	C558.757080,1015.936462 571.239258,1029.801270 584.017517,1043.304077 
	C595.769775,1055.722778 608.376465,1067.338867 620.727417,1079.182739 
	C630.301147,1088.363403 630.383667,1088.276611 642.570923,1082.823608 
	C644.494751,1081.962769 646.488159,1081.231812 648.336792,1080.232422 
	C670.667480,1068.159424 693.071167,1056.216431 715.244934,1043.861084 
	C723.894958,1039.041260 732.065735,1033.347290 740.346130,1027.886475 
	C742.905640,1026.198486 744.438904,1024.786621 740.633728,1021.680420 
	C725.870728,1009.628906 711.098999,997.513062 697.208923,984.484680 
	C675.945618,964.540405 655.842651,943.408691 637.364197,920.810242 
	C631.473694,913.606445 625.880493,906.155334 620.324707,898.688416 
	C619.720581,897.876526 619.729431,895.581543 620.368042,895.026794 
	C629.290894,887.276306 638.328125,879.654114 647.492249,872.190796 
	C648.319397,871.517029 650.923401,871.566956 651.509644,872.272156 
	C661.659729,884.482605 671.376587,897.059082 681.698364,909.118896 
	C691.245605,920.273621 700.925293,931.393188 711.405701,941.650635 
	C723.527283,953.514465 736.425842,964.607361 749.293457,975.678833 
	C759.189819,984.193726 769.560425,992.157349 780.074341,1000.652344 
	C939.440552,877.202393 1022.879211,714.805603 1034.212280,514.447876 
	C952.554688,510.086945 874.892029,490.782074 800.513916,457.471466 
	C800.713379,461.039795 800.876709,463.602386 800.996643,466.167023 
	C801.668152,480.526367 801.758484,494.941223 803.137024,509.231995 
	C804.893738,527.442444 806.851868,545.711243 810.251892,563.665405 
	C814.383240,585.481018 820.386658,606.870483 827.780457,627.914978 
	C837.096375,654.430115 848.857483,679.698486 863.002686,703.902771 
	C880.648376,734.096741 901.185547,762.147217 925.755188,787.116455 
	C928.112793,789.512390 928.284851,791.395142 926.565979,793.920105 
	C919.717834,803.979370 912.883301,814.047852 905.502625,823.697205 
	C904.630493,823.479187 903.758423,823.261169 902.271790,822.777405 
M494.988861,608.657593 
	C494.659637,607.232178 494.202301,605.822815 494.021118,604.378845 
	C492.310486,590.746582 490.383911,577.134338 489.037750,563.465271 
	C487.426727,547.106506 485.740967,530.718445 485.153961,514.304993 
	C484.487305,495.664246 484.906189,476.980591 485.047089,458.317078 
	C485.101929,451.051239 485.456726,443.769745 486.078308,436.530060 
	C487.228851,423.129333 488.552460,409.740295 490.043976,396.373169 
	C491.039886,387.447906 492.527832,378.578644 493.647552,369.665680 
	C494.330872,364.226379 494.733337,358.751801 495.282471,353.081116 
	C455.498596,353.269226 417.239441,348.615021 379.473969,339.848297 
	C379.037415,342.385956 378.713928,344.308655 378.375214,346.228638 
	C376.253540,358.255707 373.807495,370.236633 372.093903,382.321442 
	C370.346741,394.642944 369.155762,407.051483 368.015900,419.448975 
	C366.525879,435.655151 364.544159,451.871124 364.193909,468.113495 
	C363.735779,489.358765 364.383392,510.643463 365.096710,531.893005 
	C365.582581,546.366943 366.636200,560.846069 368.092010,575.256592 
	C369.652039,590.698730 371.538116,606.136963 374.084747,621.443298 
	C377.367706,641.175110 380.358917,661.061340 385.446106,680.361755 
	C392.670563,707.770752 401.406067,734.797119 410.017548,761.820801 
	C419.802917,792.528320 433.294556,821.761963 447.447327,850.630249 
	C455.174591,866.391968 464.454651,881.389526 472.911530,896.799194 
	C474.478546,899.654541 476.134857,899.350708 478.544189,898.106201 
	C498.207886,887.949402 518.536316,878.907837 537.457092,867.523621 
	C567.828430,849.249939 595.721069,827.427002 620.956848,802.428040 
	C629.048645,794.412170 636.621094,785.850525 644.135681,777.279602 
	C651.271606,769.140564 658.520691,761.021301 664.819336,752.246765 
	C673.534729,740.105591 681.587219,727.473694 689.602112,714.847778 
	C705.880615,689.204407 718.710693,661.837646 728.953186,633.294189 
	C738.118835,607.751465 746.032288,581.815430 750.037170,554.874329 
	C752.509460,538.242615 754.739502,521.574280 756.974304,504.908447 
	C757.758057,499.063049 758.586731,493.186829 758.766174,487.305511 
	C759.062012,477.611664 758.846497,467.902191 758.846497,457.630554 
	C684.310608,491.083557 606.975586,509.992920 525.886414,514.436462 
	C526.278748,516.696350 526.822449,518.757751 526.968018,520.846863 
	C527.700989,531.369202 527.914185,541.945435 529.088928,552.415344 
	C531.074402,570.111450 533.451416,587.770081 536.016113,605.393250 
	C539.719910,630.844238 546.172119,655.684143 553.687622,680.238770 
	C564.119568,714.321960 577.289246,747.325562 593.595947,779.042114 
	C594.972595,781.719849 595.255188,783.539551 592.767578,785.871155 
	C586.448547,791.793823 580.557129,798.171570 574.266663,804.126404 
	C571.399719,806.840515 567.994690,808.986206 564.078857,811.963684 
	C558.031372,799.536499 551.965149,788.189575 546.901062,776.411804 
	C538.572815,757.042053 529.936096,737.717224 523.191772,717.777283 
	C515.357910,694.615845 509.102142,670.897766 502.796967,647.251770 
	C499.495300,634.869690 497.554169,622.124878 494.988861,608.657593 
M1151.451172,757.047913 
	C1151.967407,755.856689 1152.570557,754.695068 1152.987427,753.470032 
	C1163.505859,722.566040 1172.265503,691.164612 1178.926880,659.211304 
	C1182.313843,642.965088 1185.368896,626.628540 1187.868774,610.225403 
	C1189.817627,597.437683 1190.876709,584.500916 1191.972778,571.599976 
	C1193.491211,553.727905 1195.378784,535.845520 1195.839478,517.934875 
	C1196.584961,488.953064 1196.134399,459.955872 1193.038574,431.062531 
	C1191.796143,419.467010 1191.487915,407.752502 1189.832642,396.224518 
	C1187.309937,378.657318 1183.933105,361.213867 1181.061646,343.694427 
	C1180.652222,341.196716 1180.465576,339.707367 1177.203735,340.306061 
	C1160.714722,343.332581 1144.270752,346.869965 1127.645630,348.818176 
	C1109.026855,351.000031 1090.232544,351.690216 1071.510864,352.977051 
	C1069.072632,353.144623 1066.612915,353.000000 1063.916382,353.000000 
	C1065.335571,361.602661 1066.957642,369.596130 1067.921265,377.668152 
	C1069.806152,393.455200 1071.642334,409.260834 1072.897339,425.106384 
	C1074.018799,439.265350 1074.938110,453.491852 1074.858032,467.682434 
	C1074.737305,489.046356 1073.989136,510.421478 1072.889526,531.759949 
	C1072.146729,546.173767 1070.662354,560.571899 1068.923584,574.905945 
	C1066.938965,591.268555 1065.253418,607.760376 1061.731934,623.822021 
	C1056.246704,648.840637 1050.398193,673.882568 1042.707642,698.285645 
	C1034.970093,722.838074 1025.605225,746.970337 1015.440857,770.637146 
	C1006.659180,791.084290 996.814880,811.245850 985.509766,830.393860 
	C972.458252,852.499817 958.098083,873.954834 942.810181,894.583801 
	C928.192200,914.308533 912.258057,933.157104 895.771606,951.367004 
	C882.186401,966.372437 867.125854,980.070435 852.364380,993.971069 
	C844.979187,1000.925659 836.790405,1007.025330 828.986145,1013.536926 
	C824.515991,1017.266724 820.088257,1021.047241 814.977051,1025.366211 
	C828.873474,1033.753174 841.695740,1042.095947 855.071045,1049.430054 
	C878.179382,1062.101318 901.598206,1074.209595 925.008423,1086.318848 
	C926.674683,1087.180786 930.048767,1086.966064 931.415710,1085.813477 
	C939.109192,1079.326416 946.750916,1072.713989 953.810242,1065.552734 
	C966.957825,1052.215332 979.799744,1038.570557 992.560303,1024.859619 
	C1000.638611,1016.179504 1008.856506,1007.548584 1016.102051,998.191162 
	C1031.078613,978.849304 1045.467651,959.051941 1060.041992,939.400208 
	C1062.079468,936.652954 1062.153320,934.495972 1058.335571,932.669128 
	C1047.326660,927.401733 1036.294312,922.117615 1025.661743,916.144775 
	C1010.118591,907.413452 994.915283,898.077026 979.614258,889.026306 
	C987.374329,876.782715 994.573059,865.424744 1001.842041,853.956055 
	C1006.967346,857.199463 1012.096191,860.310425 1017.087952,863.627686 
	C1037.361084,877.100220 1058.978271,888.043091 1081.087646,898.117432 
	C1084.331787,899.595764 1085.925171,898.721130 1087.342285,896.124451 
	C1095.684082,880.838806 1104.397339,865.738342 1112.202637,850.182678 
	C1119.854736,834.932373 1126.980591,819.384583 1133.583130,803.650879 
	C1139.914307,788.563416 1145.277344,773.069580 1151.451172,757.047913 
M548.190735,349.924927 
	C546.692322,349.950012 545.177795,350.128265 543.698547,349.971924 
	C538.919617,349.466919 537.497559,352.211243 536.971497,356.319366 
	C535.042175,371.386444 532.643799,386.401428 531.064453,401.503235 
	C529.338135,418.010010 528.322693,434.591156 527.002747,451.140289 
	C526.884705,452.620239 526.793762,454.102631 526.710632,455.585022 
	C526.390503,461.287689 526.078613,466.990845 525.710205,473.663086 
	C535.516357,472.713287 544.350647,472.066925 553.126953,470.960297 
	C567.541016,469.142822 581.946594,467.215271 596.303284,464.994995 
	C621.537231,461.092529 646.203613,454.779877 670.566284,447.165863 
	C706.948608,435.795288 741.806702,420.792908 775.854614,403.764923 
	C777.973328,402.705353 781.358582,402.411530 783.451416,403.342346 
	C802.908691,411.996155 822.007446,421.479370 841.608887,429.780334 
	C868.968323,441.366760 897.220825,450.244141 926.164856,457.276306 
	C957.806702,464.963898 989.802612,469.795624 1022.122986,472.941223 
	C1026.000488,473.318604 1029.946411,472.992584 1034.000000,472.992584 
	C1034.000000,470.741821 1034.082397,469.242798 1033.987305,467.755066 
	C1033.010376,452.465912 1032.040771,437.176208 1030.993896,421.891785 
	C1030.387085,413.031158 1029.985352,404.137024 1028.881226,395.334534 
	C1027.196655,381.904602 1024.929688,368.548584 1023.033325,355.143738 
	C1022.567200,351.848999 1020.918396,350.351196 1017.681702,349.973083 
	C1006.800659,348.702026 995.734436,348.181610 985.104614,345.765686 
	C961.869812,340.484985 938.599487,335.069244 915.826294,328.125732 
	C889.713257,320.163940 864.727173,309.134583 840.695068,296.008087 
	C820.665588,285.067902 801.178772,273.343109 782.894775,259.637421 
	C781.610413,258.674713 778.282104,258.760925 776.972778,259.759827 
	C755.659546,276.020325 732.444519,289.176849 708.771790,301.524414 
	C698.996399,306.623260 688.844360,311.149109 678.517151,315.008575 
	C659.702881,322.039825 640.828125,329.034790 621.614624,334.840363 
	C597.927551,341.997681 573.620178,346.678528 548.190735,349.924927 
M883.642273,1125.061401 
	C886.919312,1122.510864 890.196289,1119.960205 893.861511,1117.107544 
	C879.454773,1109.697388 865.616699,1103.427368 852.634216,1095.716919 
	C829.157410,1081.773560 806.222656,1066.919189 782.937866,1052.646973 
	C781.469177,1051.746704 778.505493,1051.854614 776.971863,1052.750732 
	C771.646301,1055.862305 766.813904,1059.817139 761.491516,1062.934937 
	C735.680420,1078.054810 709.804260,1093.064941 683.870300,1107.973267 
	C678.101746,1111.289307 672.006836,1114.037476 665.659790,1117.250977 
	C668.693237,1119.511353 671.244751,1121.486816 673.871033,1123.357544 
	C689.652283,1134.598022 705.124084,1146.314697 721.334167,1156.900146 
	C737.930115,1167.737549 755.203003,1177.547241 772.301697,1187.598877 
	C776.050720,1189.802856 779.644348,1192.411011 784.843628,1189.168823 
	C803.046021,1177.818115 821.871948,1167.454102 839.912720,1155.861938 
	C854.693420,1146.364380 868.692749,1135.650513 883.642273,1125.061401 
z"/>
<path fill="#000000" opacity="1.000000" stroke="none" 
	d="
M906.043701,824.112976 
	C912.883301,814.047852 919.717834,803.979370 926.565979,793.920105 
	C928.284851,791.395142 928.112793,789.512390 925.755188,787.116455 
	C901.185547,762.147217 880.648376,734.096741 863.002686,703.902771 
	C848.857483,679.698486 837.096375,654.430115 827.780457,627.914978 
	C820.386658,606.870483 814.383240,585.481018 810.251892,563.665405 
	C806.851868,545.711243 804.893738,527.442444 803.137024,509.231995 
	C801.758484,494.941223 801.668152,480.526367 800.996643,466.167023 
	C800.876709,463.602386 800.713379,461.039795 800.513916,457.471466 
	C874.892029,490.782074 952.554688,510.086945 1034.212280,514.447876 
	C1022.879211,714.805603 939.440552,877.202393 780.074341,1000.652344 
	C769.560425,992.157349 759.189819,984.193726 749.293457,975.678833 
	C736.425842,964.607361 723.527283,953.514465 711.405701,941.650635 
	C700.925293,931.393188 691.245605,920.273621 681.698364,909.118896 
	C671.376587,897.059082 661.659729,884.482605 651.509644,872.272156 
	C650.923401,871.566956 648.319397,871.517029 647.492249,872.190796 
	C638.328125,879.654114 629.290894,887.276306 620.368042,895.026794 
	C619.729431,895.581543 619.720581,897.876526 620.324707,898.688416 
	C625.880493,906.155334 631.473694,913.606445 637.364197,920.810242 
	C655.842651,943.408691 675.945618,964.540405 697.208923,984.484680 
	C711.098999,997.513062 725.870728,1009.628906 740.633728,1021.680420 
	C744.438904,1024.786621 742.905640,1026.198486 740.346130,1027.886475 
	C732.065735,1033.347290 723.894958,1039.041260 715.244934,1043.861084 
	C693.071167,1056.216431 670.667480,1068.159424 648.336792,1080.232422 
	C646.488159,1081.231812 644.494751,1081.962769 642.570923,1082.823608 
	C630.383667,1088.276611 630.301147,1088.363403 620.727417,1079.182739 
	C608.376465,1067.338867 595.769775,1055.722778 584.017517,1043.304077 
	C571.239258,1029.801270 558.757080,1015.936462 547.152710,1001.424377 
	C531.055847,981.294067 515.889648,960.419250 500.355286,939.840332 
	C499.306335,938.450745 498.511566,936.869324 497.476166,935.177063 
	C638.094543,869.046631 731.862854,762.218811 780.232300,614.109680 
	C804.363342,693.997375 845.513245,762.985046 902.704224,823.204407 
	C904.105652,823.791931 905.074707,823.952454 906.043701,824.112976 
z"/>
<path fill="#000000" opacity="1.000000" stroke="none" 
	d="
M494.993744,609.100708 
	C497.554169,622.124878 499.495300,634.869690 502.796967,647.251770 
	C509.102142,670.897766 515.357910,694.615845 523.191772,717.777283 
	C529.936096,737.717224 538.572815,757.042053 546.901062,776.411804 
	C551.965149,788.189575 558.031372,799.536499 564.078857,811.963684 
	C567.994690,808.986206 571.399719,806.840515 574.266663,804.126404 
	C580.557129,798.171570 586.448547,791.793823 592.767578,785.871155 
	C595.255188,783.539551 594.972595,781.719849 593.595947,779.042114 
	C577.289246,747.325562 564.119568,714.321960 553.687622,680.238770 
	C546.172119,655.684143 539.719910,630.844238 536.016113,605.393250 
	C533.451416,587.770081 531.074402,570.111450 529.088928,552.415344 
	C527.914185,541.945435 527.700989,531.369202 526.968018,520.846863 
	C526.822449,518.757751 526.278748,516.696350 525.886414,514.436462 
	C606.975586,509.992920 684.310608,491.083557 758.846497,457.630554 
	C758.846497,467.902191 759.062012,477.611664 758.766174,487.305511 
	C758.586731,493.186829 757.758057,499.063049 756.974304,504.908447 
	C754.739502,521.574280 752.509460,538.242615 750.037170,554.874329 
	C746.032288,581.815430 738.118835,607.751465 728.953186,633.294189 
	C718.710693,661.837646 705.880615,689.204407 689.602112,714.847778 
	C681.587219,727.473694 673.534729,740.105591 664.819336,752.246765 
	C658.520691,761.021301 651.271606,769.140564 644.135681,777.279602 
	C636.621094,785.850525 629.048645,794.412170 620.956848,802.428040 
	C595.721069,827.427002 567.828430,849.249939 537.457092,867.523621 
	C518.536316,878.907837 498.207886,887.949402 478.544189,898.106201 
	C476.134857,899.350708 474.478546,899.654541 472.911530,896.799194 
	C464.454651,881.389526 455.174591,866.391968 447.447327,850.630249 
	C433.294556,821.761963 419.802917,792.528320 410.017548,761.820801 
	C401.406067,734.797119 392.670563,707.770752 385.446106,680.361755 
	C380.358917,661.061340 377.367706,641.175110 374.084747,621.443298 
	C371.538116,606.136963 369.652039,590.698730 368.092010,575.256592 
	C366.636200,560.846069 365.582581,546.366943 365.096710,531.893005 
	C364.383392,510.643463 363.735779,489.358765 364.193909,468.113495 
	C364.544159,451.871124 366.525879,435.655151 368.015900,419.448975 
	C369.155762,407.051483 370.346741,394.642944 372.093903,382.321442 
	C373.807495,370.236633 376.253540,358.255707 378.375214,346.228638 
	C378.713928,344.308655 379.037415,342.385956 379.473969,339.848297 
	C417.239441,348.615021 455.498596,353.269226 495.282471,353.081116 
	C494.733337,358.751801 494.330872,364.226379 493.647552,369.665680 
	C492.527832,378.578644 491.039886,387.447906 490.043976,396.373169 
	C488.552460,409.740295 487.228851,423.129333 486.078308,436.530060 
	C485.456726,443.769745 485.101929,451.051239 485.047089,458.317078 
	C484.906189,476.980591 484.487305,495.664246 485.153961,514.304993 
	C485.740967,530.718445 487.426727,547.106506 489.037750,563.465271 
	C490.383911,577.134338 492.310486,590.746582 494.021118,604.378845 
	C494.202301,605.822815 494.659637,607.232178 494.993744,609.100708 
z"/>
<path fill="#000000" opacity="1.000000" stroke="none" 
	d="
M1151.258545,757.401123 
	C1145.277344,773.069580 1139.914307,788.563416 1133.583130,803.650879 
	C1126.980591,819.384583 1119.854736,834.932373 1112.202637,850.182678 
	C1104.397339,865.738342 1095.684082,880.838806 1087.342285,896.124451 
	C1085.925171,898.721130 1084.331787,899.595764 1081.087646,898.117432 
	C1058.978271,888.043091 1037.361084,877.100220 1017.087952,863.627686 
	C1012.096191,860.310425 1006.967346,857.199463 1001.842041,853.956055 
	C994.573059,865.424744 987.374329,876.782715 979.614258,889.026306 
	C994.915283,898.077026 1010.118591,907.413452 1025.661743,916.144775 
	C1036.294312,922.117615 1047.326660,927.401733 1058.335571,932.669128 
	C1062.153320,934.495972 1062.079468,936.652954 1060.041992,939.400208 
	C1045.467651,959.051941 1031.078613,978.849304 1016.102051,998.191162 
	C1008.856506,1007.548584 1000.638611,1016.179504 992.560303,1024.859619 
	C979.799744,1038.570557 966.957825,1052.215332 953.810242,1065.552734 
	C946.750916,1072.713989 939.109192,1079.326416 931.415710,1085.813477 
	C930.048767,1086.966064 926.674683,1087.180786 925.008423,1086.318848 
	C901.598206,1074.209595 878.179382,1062.101318 855.071045,1049.430054 
	C841.695740,1042.095947 828.873474,1033.753174 814.977051,1025.366211 
	C820.088257,1021.047241 824.515991,1017.266724 828.986145,1013.536926 
	C836.790405,1007.025330 844.979187,1000.925659 852.364380,993.971069 
	C867.125854,980.070435 882.186401,966.372437 895.771606,951.367004 
	C912.258057,933.157104 928.192200,914.308533 942.810181,894.583801 
	C958.098083,873.954834 972.458252,852.499817 985.509766,830.393860 
	C996.814880,811.245850 1006.659180,791.084290 1015.440857,770.637146 
	C1025.605225,746.970337 1034.970093,722.838074 1042.707642,698.285645 
	C1050.398193,673.882568 1056.246704,648.840637 1061.731934,623.822021 
	C1065.253418,607.760376 1066.938965,591.268555 1068.923584,574.905945 
	C1070.662354,560.571899 1072.146729,546.173767 1072.889526,531.759949 
	C1073.989136,510.421478 1074.737305,489.046356 1074.858032,467.682434 
	C1074.938110,453.491852 1074.018799,439.265350 1072.897339,425.106384 
	C1071.642334,409.260834 1069.806152,393.455200 1067.921265,377.668152 
	C1066.957642,369.596130 1065.335571,361.602661 1063.916382,353.000000 
	C1066.612915,353.000000 1069.072632,353.144623 1071.510864,352.977051 
	C1090.232544,351.690216 1109.026855,351.000031 1127.645630,348.818176 
	C1144.270752,346.869965 1160.714722,343.332581 1177.203735,340.306061 
	C1180.465576,339.707367 1180.652222,341.196716 1181.061646,343.694427 
	C1183.933105,361.213867 1187.309937,378.657318 1189.832642,396.224518 
	C1191.487915,407.752502 1191.796143,419.467010 1193.038574,431.062531 
	C1196.134399,459.955872 1196.584961,488.953064 1195.839478,517.934875 
	C1195.378784,535.845520 1193.491211,553.727905 1191.972778,571.599976 
	C1190.876709,584.500916 1189.817627,597.437683 1187.868774,610.225403 
	C1185.368896,626.628540 1182.313843,642.965088 1178.926880,659.211304 
	C1172.265503,691.164612 1163.505859,722.566040 1152.987427,753.470032 
	C1152.570557,754.695068 1151.967407,755.856689 1151.258545,757.401123 
z"/>
<path fill="#000000" opacity="1.000000" stroke="none" 
	d="
M548.593994,349.714386 
	C573.620178,346.678528 597.927551,341.997681 621.614624,334.840363 
	C640.828125,329.034790 659.702881,322.039825 678.517151,315.008575 
	C688.844360,311.149109 698.996399,306.623260 708.771790,301.524414 
	C732.444519,289.176849 755.659546,276.020325 776.972778,259.759827 
	C778.282104,258.760925 781.610413,258.674713 782.894775,259.637421 
	C801.178772,273.343109 820.665588,285.067902 840.695068,296.008087 
	C864.727173,309.134583 889.713257,320.163940 915.826294,328.125732 
	C938.599487,335.069244 961.869812,340.484985 985.104614,345.765686 
	C995.734436,348.181610 1006.800659,348.702026 1017.681702,349.973083 
	C1020.918396,350.351196 1022.567200,351.848999 1023.033325,355.143738 
	C1024.929688,368.548584 1027.196655,381.904602 1028.881226,395.334534 
	C1029.985352,404.137024 1030.387085,413.031158 1030.993896,421.891785 
	C1032.040771,437.176208 1033.010376,452.465912 1033.987305,467.755066 
	C1034.082397,469.242798 1034.000000,470.741821 1034.000000,472.992584 
	C1029.946411,472.992584 1026.000488,473.318604 1022.122986,472.941223 
	C989.802612,469.795624 957.806702,464.963898 926.164856,457.276306 
	C897.220825,450.244141 868.968323,441.366760 841.608887,429.780334 
	C822.007446,421.479370 802.908691,411.996155 783.451416,403.342346 
	C781.358582,402.411530 777.973328,402.705353 775.854614,403.764923 
	C741.806702,420.792908 706.948608,435.795288 670.566284,447.165863 
	C646.203613,454.779877 621.537231,461.092529 596.303284,464.994995 
	C581.946594,467.215271 567.541016,469.142822 553.126953,470.960297 
	C544.350647,472.066925 535.516357,472.713287 525.710205,473.663086 
	C526.078613,466.990845 526.390503,461.287689 526.710632,455.585022 
	C526.793762,454.102631 526.884705,452.620239 527.002747,451.140289 
	C528.322693,434.591156 529.338135,418.010010 531.064453,401.503235 
	C532.643799,386.401428 535.042175,371.386444 536.971497,356.319366 
	C537.497559,352.211243 538.919617,349.466919 543.698547,349.971924 
	C545.177795,350.128265 546.692322,349.950012 548.593994,349.714386 
z"/>
<path fill="#000000" opacity="1.000000" stroke="none" 
	d="
M883.340393,1125.268555 
	C868.692749,1135.650513 854.693420,1146.364380 839.912720,1155.861938 
	C821.871948,1167.454102 803.046021,1177.818115 784.843628,1189.168823 
	C779.644348,1192.411011 776.050720,1189.802856 772.301697,1187.598877 
	C755.203003,1177.547241 737.930115,1167.737549 721.334167,1156.900146 
	C705.124084,1146.314697 689.652283,1134.598022 673.871033,1123.357544 
	C671.244751,1121.486816 668.693237,1119.511353 665.659790,1117.250977 
	C672.006836,1114.037476 678.101746,1111.289307 683.870300,1107.973267 
	C709.804260,1093.064941 735.680420,1078.054810 761.491516,1062.934937 
	C766.813904,1059.817139 771.646301,1055.862305 776.971863,1052.750732 
	C778.505493,1051.854614 781.469177,1051.746704 782.937866,1052.646973 
	C806.222656,1066.919189 829.157410,1081.773560 852.634216,1095.716919 
	C865.616699,1103.427368 879.454773,1109.697388 893.861511,1117.107544 
	C890.196289,1119.960205 886.919312,1122.510864 883.340393,1125.268555 
z"/>
<path fill="#2979FF" opacity="1.000000" stroke="none" 
	d="
M905.773193,823.905090 
	C905.074707,823.952454 904.105652,823.791931 903.011475,823.337280 
	C903.758423,823.261169 904.630493,823.479187 905.773193,823.905090 
z"/>
</svg>