<svg version="1.1" id="Layer_1" xmlns="http://www.w3.org/2000/svg" xmlns:xlink="http://www.w3.org/1999/xlink" x="0px" y="0px"
	 width="100%" viewBox="0 0 1500 1500" enable-background="new 0 0 1500 1500" xml:space="preserve">
<path fill="#000000" opacity="1.000000" stroke="none" 
	d="
M791.000000,1501.000000 
	C528.833374,1501.000000 267.166748,1500.990601 5.500177,1501.093262 
	C1.751299,1501.094727 0.906392,1500.249512 0.907129,1496.500122 
	C1.004925,999.500244 1.004959,502.500305 0.907223,5.500427 
	C0.906486,1.752384 1.749543,0.906337 5.499608,0.907076 
	C502.499481,1.004949 999.499390,1.004934 1496.499268,0.907279 
	C1500.246582,0.906543 1501.093628,1.748524 1501.092896,5.499339 
	C1500.994995,502.499207 1500.994995,999.499146 1501.092651,1496.499023 
	C1501.093384,1500.245605 1500.252563,1501.095215 1496.500977,1501.093506 
	C1261.500610,1500.989502 1026.500366,1501.000000 791.000000,1501.000000 
z"/>
<path fill="#5E35B1" opacity="1.000000" stroke="none" 
	d="
M1191.694580,767.648193 
	C1183.858887,791.213135 1174.736572,813.843140 1164.993164,836.246948 
	C1157.244995,854.062561 1148.630981,871.461243 1139.593994,888.621582 
	C1128.815308,909.089233 1116.843994,928.890503 1104.255249,948.327942 
	C1087.635132,973.989563 1069.505615,998.540771 1050.130859,1022.135620 
	C1039.235107,1035.404663 1027.900146,1048.343262 1015.957458,1060.749268 
	C1007.432556,1069.604858 999.199646,1078.768677 990.229187,1087.162842 
	C970.103088,1105.995605 949.763123,1124.560669 928.082947,1141.681030 
	C903.831665,1160.831665 878.860046,1178.893799 852.898132,1195.610229 
	C834.959839,1207.160278 816.639282,1218.070923 797.786621,1228.079590 
	C792.859436,1230.695190 788.032715,1233.509888 783.249329,1236.382202 
	C781.082031,1237.683472 779.321472,1237.781982 776.954041,1236.552612 
	C754.649902,1224.968750 732.856140,1212.521118 711.578613,1199.133667 
	C686.700134,1183.480591 662.666443,1166.613037 639.462891,1148.617798 
	C626.197693,1138.330078 613.348755,1127.478882 600.697937,1116.393677 
	C587.229858,1104.592529 574.082397,1092.421143 561.537415,1079.723877 
	C541.687256,1059.632812 522.592102,1038.816528 504.892761,1016.692749 
	C488.972229,996.792603 473.791504,976.414978 459.673462,955.234253 
	C446.655151,935.703186 434.548767,915.621216 423.396057,894.943909 
	C403.265472,857.621582 385.969208,819.094910 371.839172,779.086365 
	C361.793518,750.642334 353.339905,721.755066 346.377075,692.454895 
	C341.608765,672.389282 337.723236,652.107788 334.877808,631.633179 
	C332.684143,615.848450 330.263947,600.115967 328.877106,584.217285 
	C327.686279,570.566223 326.696350,556.921265 325.837585,543.244141 
	C324.155853,516.459473 324.815216,489.668945 325.286285,462.916656 
	C325.578369,446.329315 327.094513,429.681396 328.787750,413.090820 
	C330.557983,395.745636 332.528229,378.426819 335.151093,361.215973 
	C338.011658,342.445129 341.100922,323.682129 345.408081,305.158447 
	C346.371277,301.016083 347.094086,296.817963 348.051300,292.674042 
	C348.584381,290.366180 348.946655,288.665894 352.594971,289.635284 
	C370.464233,294.383331 388.310303,299.270020 406.589264,302.342560 
	C419.042175,304.435791 431.464264,306.611023 444.022247,308.088562 
	C460.641083,310.043854 477.256653,311.215149 494.002075,311.069031 
	C510.290039,310.926880 526.518677,310.870300 542.792542,309.209045 
	C564.578735,306.985168 585.866638,302.726013 606.979370,297.133728 
	C624.598572,292.466827 641.603516,286.138733 658.435547,279.237335 
	C691.277466,265.771667 721.488220,247.602585 750.656250,227.612625 
	C759.250488,221.722641 767.434082,215.218872 775.641052,208.786026 
	C778.594788,206.470810 781.037292,206.050186 784.034241,208.534073 
	C799.228638,221.127197 815.618042,232.060669 832.205750,242.680435 
	C859.524902,260.170624 888.335754,274.656525 918.728027,286.140869 
	C942.274475,295.038391 966.494446,301.288574 991.152588,305.730072 
	C1003.243347,307.907928 1015.569397,309.091400 1027.857666,310.308990 
	C1038.604248,311.373810 1049.404541,311.269012 1060.031250,311.358002 
	C1069.949463,311.441040 1080.117188,311.714447 1090.199951,310.342072 
	C1098.641846,309.193024 1107.272949,308.953735 1115.814331,308.079529 
	C1131.669556,306.456818 1147.279907,303.452118 1162.919189,300.550995 
	C1177.904053,297.771210 1192.537109,293.532288 1207.254761,289.686157 
	C1210.733765,288.777008 1211.444458,290.046417 1211.935425,292.512726 
	C1215.643188,311.138000 1219.897827,329.682526 1222.772095,348.437622 
	C1225.631226,367.093384 1228.470337,385.772339 1230.155029,404.620850 
	C1231.801392,423.041962 1233.088501,441.459656 1234.200317,459.919800 
	C1235.613525,483.382935 1235.241455,506.835907 1234.720459,530.248718 
	C1234.343628,547.177124 1232.714111,564.142578 1231.208374,581.073914 
	C1228.352905,613.183228 1223.171509,644.907776 1216.808472,676.431030 
	C1212.927856,695.657043 1208.066284,714.714783 1202.244019,733.488281 
	C1198.752930,744.745422 1195.338257,756.026245 1191.694580,767.648193 
z"/>
<path fill="#000000" opacity="1.000000" stroke="none" 
	d="
M742.714111,1023.435974 
	C743.231934,1026.026611 741.620056,1026.964355 740.073975,1027.985962 
	C721.444824,1040.295776 702.211304,1051.569214 682.583679,1062.220947 
	C667.553894,1070.377563 652.501099,1078.444580 636.965088,1085.610962 
	C632.772766,1087.544678 630.025208,1087.329224 626.217651,1084.006104 
	C611.682373,1071.320435 597.890381,1057.878784 584.591858,1043.957764 
	C568.405884,1027.014282 553.062805,1009.315125 538.334045,991.053406 
	C525.019531,974.544983 512.494385,957.499268 500.497589,940.039551 
	C496.926941,934.843018 496.922485,934.671265 502.787537,932.083984 
	C530.382446,919.910706 556.227234,904.670532 580.981079,887.530090 
	C594.904114,877.889282 608.331421,867.625916 621.154968,856.513062 
	C632.545776,846.641724 644.032227,836.866272 654.417603,825.965637 
	C681.842163,797.180420 706.559204,766.288818 727.093323,732.100586 
	C736.338013,716.708923 744.840698,700.958435 752.541687,684.785522 
	C760.716858,667.616638 767.941101,650.022217 773.940674,631.951721 
	C775.791565,626.377014 777.669617,620.811401 779.653992,614.887207 
	C781.902100,616.691956 782.015808,619.322937 782.636597,621.449646 
	C787.836670,639.261841 794.750671,656.421875 802.122131,673.407043 
	C814.707520,702.405518 830.126282,729.849487 848.005920,755.898926 
	C857.864502,770.262085 868.410645,784.101868 879.729980,797.377869 
	C886.912354,805.801941 894.299255,814.025513 901.702454,822.245667 
	C903.979553,824.774048 905.063538,825.584106 907.808838,822.019897 
	C914.852295,812.875366 920.491150,802.863525 926.892883,793.334045 
	C928.457275,791.005310 927.898621,789.310913 925.905518,787.316772 
	C906.035767,767.436462 889.235840,745.098145 873.916626,721.616333 
	C856.903198,695.537720 842.955444,667.937317 831.769836,638.825256 
	C822.395264,614.426819 815.411194,589.400940 810.245361,563.886169 
	C807.319946,549.437500 805.376282,534.769409 803.830017,520.047058 
	C801.890015,501.574860 800.702881,483.119446 800.977417,464.557587 
	C801.007935,462.490326 799.964539,459.030151 800.735962,458.604950 
	C803.208252,457.242371 805.680481,459.565948 807.907837,460.580963 
	C830.471497,470.863007 853.732361,479.330231 877.391479,486.570404 
	C901.016235,493.800079 924.956665,499.886932 949.358643,504.176666 
	C962.918823,506.560455 976.497131,508.806366 990.107178,510.822784 
	C998.082336,512.004333 1006.198364,512.204529 1014.231689,513.033630 
	C1019.999390,513.628906 1025.748291,514.282776 1031.560669,514.026306 
	C1033.473511,513.941956 1034.152832,514.627136 1033.683960,516.738586 
	C1031.988525,524.373169 1032.914307,532.201660 1032.223633,539.951172 
	C1030.529541,558.959717 1028.233154,577.845642 1025.286255,596.700989 
	C1022.017639,617.615112 1017.353210,638.189209 1011.997559,658.628296 
	C1005.306335,684.164490 996.785828,709.079590 986.891113,733.565857 
	C978.746521,753.721436 969.274048,773.225037 959.153259,792.413513 
	C945.125977,819.008301 928.998535,844.289856 911.134644,868.510010 
	C897.514709,886.976074 882.863281,904.497437 867.306213,921.354370 
	C852.435852,937.467224 836.838928,952.753723 820.387878,967.240479 
	C808.144897,978.021667 795.291992,988.005920 782.547974,998.151917 
	C780.238464,999.990540 779.118408,999.601807 777.231689,998.091370 
	C768.255066,990.905273 759.205078,983.810913 750.183105,976.681580 
	C736.540344,965.900879 723.894714,953.939026 711.622437,941.721375 
	C701.222351,931.367554 691.048889,920.676636 681.562561,909.370361 
	C673.305542,899.529053 664.945496,889.783325 657.096069,879.609802 
	C656.691650,879.085693 656.123413,878.688599 655.713196,878.168091 
	C649.401917,870.159973 649.642273,870.419922 642.256531,877.094788 
	C635.554993,883.151184 628.362122,888.685059 621.168579,894.163818 
	C618.854309,895.926453 618.666077,896.905945 620.477844,899.149841 
	C626.252808,906.302307 631.627625,913.779602 637.448059,920.893188 
	C655.855835,943.390564 675.963562,964.333008 696.991516,984.355286 
	C711.432373,998.105530 726.595825,1011.085632 742.714111,1023.435974 
z"/>
<path fill="#000000" opacity="1.000000" stroke="none" 
	d="
M549.001160,664.027527 
	C543.463318,644.733521 539.214294,625.564575 536.003235,606.167664 
	C533.941956,593.715515 531.809998,581.267090 530.157776,568.757874 
	C529.036316,560.266663 529.183472,551.596008 527.863770,543.146118 
	C526.502991,534.433472 528.042358,525.604187 526.116211,516.979858 
	C525.644531,514.868164 526.527466,513.952698 528.749268,513.985962 
	C538.848877,514.137085 548.885071,512.989319 558.887451,511.910767 
	C577.314087,509.923798 595.639160,507.169769 613.849182,503.620300 
	C635.231628,499.452423 656.336060,494.244781 677.231873,488.096558 
	C695.793823,482.635101 713.975159,476.124603 731.945190,468.996704 
	C739.413086,466.034485 746.971375,463.286682 754.093567,459.488312 
	C757.095581,457.887238 759.053040,457.552521 759.140991,462.515503 
	C759.426453,478.627686 758.518494,494.693909 756.849792,510.652863 
	C753.539612,542.309875 747.603088,573.488281 738.547424,604.088989 
	C729.479492,634.731262 717.810974,664.296997 702.722717,692.404236 
	C689.830017,716.421509 675.329041,739.474609 657.981384,760.657288 
	C649.291321,771.268372 640.275146,781.537292 631.030884,791.672668 
	C603.704834,821.632935 571.818115,845.938110 537.752136,867.441528 
	C518.855469,879.369629 498.746826,889.260071 478.281281,898.325439 
	C475.689209,899.473633 474.276123,899.014526 472.671875,896.454651 
	C463.849854,882.377258 456.006989,867.731995 448.616974,852.910950 
	C435.661682,826.928650 424.003296,800.350159 413.847656,773.099304 
	C402.680267,743.133667 393.255951,712.680664 385.804688,681.596008 
	C381.069794,661.843201 377.251678,641.923889 373.864288,621.892273 
	C371.013977,605.037170 368.882660,588.094727 367.210388,571.123901 
	C366.062439,559.474304 365.559540,547.712036 364.830475,536.002930 
	C363.536163,515.216125 363.800659,494.433380 364.168610,473.672394 
	C364.489929,455.543793 365.864838,437.428528 367.807678,419.351746 
	C369.318787,405.291656 370.852356,391.246979 373.031494,377.281494 
	C374.875427,365.464600 377.068451,353.702423 378.989899,341.897003 
	C379.376129,339.524048 380.935760,339.795197 382.282227,340.192810 
	C396.949188,344.523956 412.088226,346.546326 427.129974,348.723328 
	C438.838623,350.417969 450.704437,351.336792 462.556519,352.144470 
	C472.344086,352.811493 482.108093,352.975922 491.891479,352.965576 
	C494.290802,352.963043 495.028961,353.828278 495.039124,356.170380 
	C495.069427,363.137543 493.326477,369.873810 492.582825,376.737610 
	C491.521362,386.534515 489.972229,396.282043 489.053009,406.090179 
	C487.545746,422.172607 486.371155,438.286285 485.076996,454.388458 
	C484.970459,455.714203 485.003448,457.052643 485.002930,458.385162 
	C484.998108,471.217529 485.208282,484.054077 484.949371,496.881226 
	C484.594055,514.482239 485.580078,532.049927 487.187531,549.516113 
	C489.336823,572.869324 492.313873,596.138245 496.770996,619.236023 
	C501.616760,644.347900 507.565216,669.121155 514.968384,693.588379 
	C523.671326,722.351318 534.780762,750.160950 547.107361,777.532410 
	C551.840393,788.042236 557.360046,798.121399 562.618530,808.350586 
	C564.255493,811.534973 565.961670,811.044922 567.947815,809.456299 
	C577.318420,801.960938 585.264160,792.964294 593.869263,784.660095 
	C595.932739,782.668884 594.530212,780.993408 593.674133,779.322693 
	C585.354858,763.087830 577.820862,746.488464 571.052734,729.559998 
	C562.536865,708.259766 555.226135,686.533691 549.001160,664.027527 
z"/>
<path fill="#000000" opacity="1.000000" stroke="none" 
	d="
M1166.318848,710.330750 
	C1157.354614,743.168518 1145.796875,774.653076 1132.816650,805.665283 
	C1126.343750,821.130554 1119.039307,836.204163 1111.738525,851.255554 
	C1104.434204,866.314392 1095.850830,880.752686 1087.832397,895.465454 
	C1086.090210,898.662048 1084.128174,899.592773 1080.344238,897.843750 
	C1058.689331,887.834717 1037.476685,877.047546 1017.467896,863.993286 
	C1013.208923,861.214661 1008.667847,858.884338 1004.820251,855.464905 
	C1002.941956,853.795654 1001.296631,854.084900 999.909119,856.539429 
	C994.094910,866.824829 987.787231,876.816345 980.940430,886.440796 
	C979.028870,889.127869 981.564148,889.264832 982.521057,889.919739 
	C992.263611,896.588074 1002.037109,903.215942 1012.303040,909.074768 
	C1025.593872,916.659973 1039.152466,923.733032 1052.900513,930.451416 
	C1062.443237,935.114624 1062.424805,935.157166 1056.343140,944.275757 
	C1042.836670,964.526611 1027.988770,983.749084 1012.254089,1002.316406 
	C1001.996155,1014.421082 991.469971,1026.263306 980.772339,1037.984863 
	C971.116821,1048.564697 960.831360,1058.476807 950.758789,1068.611816 
	C944.710938,1074.697144 937.966248,1080.085083 931.640320,1085.901367 
	C929.004578,1088.324707 926.587280,1087.189087 924.024536,1086.008423 
	C900.123718,1074.996826 877.016785,1062.516479 854.298462,1049.231323 
	C842.395447,1042.270752 830.805054,1034.852173 819.093445,1027.605835 
	C815.631897,1025.464233 815.973511,1023.831665 818.877747,1021.631348 
	C832.421753,1011.370483 845.150085,1000.157410 857.820862,988.839478 
	C871.740601,976.405945 884.794739,963.103821 897.634583,949.637329 
	C916.275696,930.086487 933.134460,908.970093 948.977417,887.071777 
	C966.026184,863.506897 981.258728,838.827942 995.023865,813.195374 
	C1009.342163,786.532593 1021.481689,758.938232 1032.003296,730.592224 
	C1041.416504,705.231934 1049.124512,679.353821 1055.419556,653.065308 
	C1059.767822,634.906494 1063.335693,616.580627 1066.046021,598.089600 
	C1068.574341,580.840149 1070.789429,563.575378 1072.139282,546.175964 
	C1073.061157,534.292480 1073.366333,522.387451 1074.213135,510.529572 
	C1075.139526,497.559906 1075.213257,484.615479 1074.871216,471.691254 
	C1074.363647,452.518341 1073.528687,433.320465 1071.833496,414.221954 
	C1070.092773,394.609558 1067.931274,374.999725 1064.265869,355.615326 
	C1063.845825,353.394104 1064.752441,352.998840 1066.558350,353.007355 
	C1070.558105,353.026215 1074.560791,353.099609 1078.557373,352.983490 
	C1094.888916,352.509003 1111.138794,351.193115 1127.368896,349.169708 
	C1144.150879,347.077484 1160.796387,344.428711 1177.204956,340.355072 
	C1179.578247,339.765869 1180.575928,340.535645 1180.994873,342.793365 
	C1184.075806,359.397491 1186.994019,376.019745 1189.067871,392.794067 
	C1191.230835,410.290466 1192.821045,427.816315 1194.192505,445.397095 
	C1196.133911,470.284393 1196.593262,495.187744 1195.762451,520.056152 
	C1195.185181,537.328064 1194.056763,554.630310 1192.248657,571.890808 
	C1190.244263,591.026855 1188.092773,610.140686 1184.840088,629.070496 
	C1180.517090,654.228882 1175.064331,679.185730 1168.110718,703.781006 
	C1167.531250,705.830505 1167.049194,707.907532 1166.318848,710.330750 
z"/>
<path fill="#000000" opacity="1.000000" stroke="none" 
	d="
M957.928345,340.011963 
	C972.205322,343.418640 986.182617,346.137238 1000.323853,348.025726 
	C1006.356750,348.831421 1012.345520,349.882599 1018.457397,350.113220 
	C1021.258057,350.218903 1022.622498,352.238098 1023.009949,355.056000 
	C1025.289062,371.633575 1028.051025,388.157288 1029.823608,404.787323 
	C1030.905884,414.941956 1031.630981,425.172028 1032.191406,435.404083 
	C1032.796387,446.452576 1033.289917,457.515930 1034.047363,468.558411 
	C1034.284302,472.012390 1033.239014,473.269531 1029.650635,473.056763 
	C1016.333313,472.266998 1003.089233,471.036469 989.851074,469.231689 
	C975.377258,467.258423 960.991638,464.935120 946.694458,462.000488 
	C918.591919,456.232239 891.049744,448.532043 864.101807,438.624481 
	C836.331604,428.414642 809.342407,416.482727 783.033386,402.983215 
	C780.914795,401.896149 779.113159,401.871552 776.989319,402.976776 
	C753.807434,415.040375 729.971313,425.683044 705.585510,435.043488 
	C686.480469,442.376892 667.045288,448.754486 647.246948,454.026093 
	C625.713013,459.759796 603.935974,464.393311 581.938538,467.757751 
	C569.117371,469.718658 556.225342,471.552551 543.196838,472.126312 
	C538.601318,472.328674 534.015015,473.046387 529.368896,473.058228 
	C526.729370,473.064941 525.940613,472.158478 525.958069,469.582947 
	C526.033386,458.493896 527.207275,447.476379 527.808838,436.426544 
	C528.312012,427.185425 529.173584,417.996643 529.974915,408.789703 
	C531.015503,396.834930 532.656738,384.961914 534.453369,373.105225 
	C535.313049,367.431671 536.156067,361.755554 537.015869,356.082031 
	C537.511169,352.813110 538.398804,350.227539 542.586365,349.943970 
	C559.148987,348.822296 575.400452,345.678467 591.622925,342.246002 
	C612.479492,337.833008 632.962830,332.203278 653.059631,325.084473 
	C686.749329,313.150696 718.783569,297.864716 748.955933,278.654602 
	C758.510986,272.571075 768.163635,266.666443 777.002441,259.545471 
	C779.089233,257.864258 781.080444,258.093903 783.189392,259.692291 
	C801.148621,273.303955 820.400391,284.832458 840.126404,295.695984 
	C863.497498,308.566956 888.008301,318.736694 913.127136,327.444153 
	C927.643616,332.476257 942.476135,336.642975 957.928345,340.011963 
z"/>
<path fill="#000000" opacity="1.000000" stroke="none" 
	d="
M837.225647,1086.748291 
	C854.129333,1096.679443 871.028687,1105.848755 888.398071,1114.144043 
	C893.951904,1116.796509 894.026978,1117.745850 888.984619,1121.444092 
	C879.327332,1128.527344 869.647522,1135.581909 859.888123,1142.523315 
	C835.926147,1159.566772 810.742676,1174.650635 785.097839,1188.993286 
	C781.865112,1190.801147 779.128296,1191.299438 775.504578,1189.290161 
	C758.280212,1179.739380 741.216248,1169.935669 724.709595,1159.184326 
	C708.355957,1148.532593 692.443970,1137.239014 676.612427,1125.834961 
	C673.029419,1123.253906 669.721497,1120.291016 665.862000,1117.158936 
	C670.775391,1114.681641 675.451172,1112.332153 680.119873,1109.968750 
	C708.124451,1095.791870 735.259583,1080.108032 761.544373,1062.953491 
	C766.485901,1059.728516 771.511780,1056.610718 776.255737,1053.113647 
	C778.927185,1051.144531 780.856995,1051.089233 783.635376,1053.020874 
	C800.879944,1065.009888 818.554932,1076.332642 837.225647,1086.748291 
z"/>
</svg>