<svg width="128" height="128" viewBox="0 0 128 128" fill="none" xmlns="http://www.w3.org/2000/svg">
  <rect width="128" height="128" rx="64" fill="#6C5CE7"/>
  <path d="M89.3333 42.6667H38.6667C35.7333 42.6667 33.3333 45.0667 33.3333 48V80C33.3333 82.9333 35.7333 85.3333 38.6667 85.3333H89.3333C92.2667 85.3333 94.6667 82.9333 94.6667 80V48C94.6667 45.0667 92.2667 42.6667 89.3333 42.6667Z" fill="white"/>
  <path d="M64 69.3333C68.4183 69.3333 72 65.7516 72 61.3333C72 56.915 68.4183 53.3333 64 53.3333C59.5817 53.3333 56 56.915 56 61.3333C56 65.7516 59.5817 69.3333 64 69.3333Z" fill="#6C5CE7"/>
  <path d="M89.3333 42.6667H38.6667C35.7333 42.6667 33.3333 45.0667 33.3333 48V53.3333H94.6667V48C94.6667 45.0667 92.2667 42.6667 89.3333 42.6667Z" fill="#6C5CE7"/>
</svg>
