<svg width="128" height="128" viewBox="0 0 128 128" fill="none" xmlns="http://www.w3.org/2000/svg">
  <rect width="128" height="128" rx="64" fill="#000000"/>
  <path d="M89.3333 38.6667H38.6667C36.0893 38.6667 34 40.756 34 43.3333V84.6667C34 87.244 36.0893 89.3333 38.6667 89.3333H89.3333C91.9107 89.3333 94 87.244 94 84.6667V43.3333C94 40.756 91.9107 38.6667 89.3333 38.6667Z" fill="white"/>
  <path d="M81.3333 46.6667H46.6667C45.1939 46.6667 44 47.8607 44 49.3333V78.6667C44 80.1393 45.1939 81.3333 46.6667 81.3333H81.3333C82.8061 81.3333 84 80.1393 84 78.6667V49.3333C84 47.8607 82.8061 46.6667 81.3333 46.6667Z" fill="black"/>
  <path d="M64 70.6667C67.6819 70.6667 70.6667 67.6819 70.6667 64C70.6667 60.3181 67.6819 57.3333 64 57.3333C60.3181 57.3333 57.3333 60.3181 57.3333 64C57.3333 67.6819 60.3181 70.6667 64 70.6667Z" fill="white"/>
</svg>
