<svg width="128" height="128" viewBox="0 0 128 128" fill="none" xmlns="http://www.w3.org/2000/svg">
  <rect width="128" height="128" rx="64" fill="#AB9FF2"/>
  <path d="M110.584 64.9142C110.584 58.9571 105.741 54.1142 99.7836 54.1142H73.3547C72.5906 54.1142 71.9729 53.4965 71.9729 52.7324V45.5556C71.9729 39.5985 67.13 34.7556 61.1729 34.7556H28.4159C27.6518 34.7556 27.0341 35.3733 27.0341 36.1374V91.8627C27.0341 92.6268 27.6518 93.2445 28.4159 93.2445H99.7836C105.741 93.2445 110.584 88.4016 110.584 82.4445V64.9142Z" fill="white"/>
  <path d="M87.4239 69.1429C87.4239 72.5461 84.6636 75.3064 81.2604 75.3064C77.8572 75.3064 75.0969 72.5461 75.0969 69.1429C75.0969 65.7397 77.8572 62.9794 81.2604 62.9794C84.6636 62.9794 87.4239 65.7397 87.4239 69.1429Z" fill="#AB9FF2"/>
</svg>
