<svg width="128" height="128" viewBox="0 0 128 128" fill="none" xmlns="http://www.w3.org/2000/svg">
  <rect width="128" height="128" rx="64" fill="#FC9965"/>
  <path d="M64 108C88.8528 108 109 87.8528 109 63C109 38.1472 88.8528 18 64 18C39.1472 18 19 38.1472 19 63C19 87.8528 39.1472 108 64 108Z" fill="#FC9965"/>
  <path d="M64 101C85.0914 101 102 84.0914 102 63C102 41.9086 85.0914 25 64 25C42.9086 25 26 41.9086 26 63C26 84.0914 42.9086 101 64 101Z" fill="#FE831A"/>
  <path d="M64.0002 85.6667C76.5064 85.6667 86.6668 75.5063 86.6668 63.0001C86.6668 50.4939 76.5064 40.3334 64.0002 40.3334C51.494 40.3334 41.3335 50.4939 41.3335 63.0001C41.3335 75.5063 51.494 85.6667 64.0002 85.6667Z" fill="white"/>
  <path d="M64.0002 77.6667C72.0878 77.6667 78.6668 71.0877 78.6668 63.0001C78.6668 54.9124 72.0878 48.3334 64.0002 48.3334C55.9126 48.3334 49.3335 54.9124 49.3335 63.0001C49.3335 71.0877 55.9126 77.6667 64.0002 77.6667Z" fill="#FE831A"/>
</svg>
