<svg width="128" height="128" viewBox="0 0 128 128" fill="none" xmlns="http://www.w3.org/2000/svg">
  <rect width="128" height="128" rx="64" fill="#0364FF"/>
  <path d="M64 108C88.8528 108 109 87.8528 109 63C109 38.1472 88.8528 18 64 18C39.1472 18 19 38.1472 19 63C19 87.8528 39.1472 108 64 108Z" fill="#0364FF"/>
  <path d="M64 93.3333C80.1539 93.3333 93.3333 80.1539 93.3333 64C93.3333 47.8461 80.1539 34.6667 64 34.6667C47.8461 34.6667 34.6667 47.8461 34.6667 64C34.6667 80.1539 47.8461 93.3333 64 93.3333Z" fill="white"/>
  <path d="M64 85.3333C75.7276 85.3333 85.3333 75.7276 85.3333 64C85.3333 52.2724 75.7276 42.6667 64 42.6667C52.2724 42.6667 42.6667 52.2724 42.6667 64C42.6667 75.7276 52.2724 85.3333 64 85.3333Z" fill="#0364FF"/>
  <path d="M64 77.3333C71.3638 77.3333 77.3333 71.3638 77.3333 64C77.3333 56.6362 71.3638 50.6667 64 50.6667C56.6362 50.6667 50.6667 56.6362 50.6667 64C50.6667 71.3638 56.6362 77.3333 64 77.3333Z" fill="white"/>
</svg>
